<svg width="194" height="30" viewBox="0 0 194 30" fill="none" xmlns="http://www.w3.org/2000/svg">
<path d="M11.9223 0.403832L6.85281 29.5784H0L5.04944 0.403832H11.9223ZM20.8189 12.5465L19.8772 17.9566H6.89289L7.83465 12.5465H20.8189ZM24.0249 0.403832L23.0832 5.83398H8.97678L9.93858 0.403832H24.0249Z" fill="#EF7F1A"/>
<path d="M34.1038 0.403832L29.0543 29.5784H22.2015L27.271 0.403832H34.1038Z" fill="#EF7F1A"/>
<path d="M62.5169 0.403832L57.4474 29.5784H50.795L43.842 11.1639L40.636 29.5784H33.7832L38.8326 0.403832H45.5251L52.4781 18.8183L55.6641 0.403832H62.5169Z" fill="#EF7F1A"/>
<path d="M77.7053 21.6836C77.8255 21.0558 77.7788 20.5214 77.565 20.0806C77.3646 19.6398 77.0574 19.2658 76.6433 18.9585C76.2425 18.6513 75.7817 18.3908 75.2607 18.1771C74.7531 17.95 74.2588 17.7429 73.7779 17.5559C72.736 17.1418 71.7074 16.6743 70.6922 16.1533C69.6769 15.6189 68.7552 14.9911 67.927 14.2698C67.0988 13.5484 66.4509 12.7068 65.9834 11.745C65.5292 10.7832 65.3355 9.65446 65.4023 8.3587C65.4958 6.87593 65.9166 5.60021 66.6646 4.53155C67.4127 3.46288 68.3678 2.59459 69.53 1.92668C70.7055 1.24541 71.9679 0.751148 73.3171 0.443907C74.6796 0.123307 76.0088 -0.0236339 77.3045 0.00308269C79.148 0.0297993 80.7911 0.403832 82.2337 1.12518C83.6898 1.84653 84.8319 2.8818 85.6602 4.23099C86.4884 5.56682 86.8891 7.18317 86.8624 9.08005H80.0697C80.0964 8.33199 79.9962 7.68411 79.7691 7.13642C79.5554 6.57537 79.2014 6.14123 78.7072 5.83398C78.2129 5.51339 77.5717 5.34641 76.7836 5.33305C76.129 5.31969 75.4744 5.42656 74.8199 5.65365C74.1653 5.86738 73.5976 6.20134 73.1167 6.65552C72.6358 7.1097 72.3286 7.69747 72.195 8.41882C72.1015 8.96651 72.1883 9.44741 72.4555 9.86152C72.7226 10.2623 73.09 10.6096 73.5575 10.9035C74.0251 11.184 74.5126 11.4244 75.0203 11.6248C75.5412 11.8252 75.9954 11.9988 76.3828 12.1458C77.4782 12.5599 78.5268 13.0475 79.5287 13.6085C80.5439 14.1562 81.4389 14.8041 82.2137 15.5522C83.0019 16.3002 83.603 17.1752 84.0171 18.1771C84.4445 19.1656 84.6182 20.3144 84.5381 21.6235C84.4312 23.133 84.0304 24.4221 83.3358 25.4907C82.6412 26.5594 81.7462 27.4277 80.6508 28.0956C79.5554 28.7635 78.3532 29.2511 77.044 29.5583C75.7349 29.8656 74.4058 30.0125 73.0566 29.9992C71.5471 29.9724 70.1378 29.7454 68.8287 29.3179C67.5196 28.8771 66.3774 28.2425 65.4023 27.4143C64.4271 26.5728 63.6724 25.5442 63.138 24.3286C62.6037 23.0996 62.3499 21.6903 62.3766 20.1007L69.2495 20.1207C69.2094 20.8688 69.2561 21.53 69.3897 22.1044C69.5367 22.6655 69.7771 23.1397 70.1111 23.5271C70.4584 23.9011 70.9059 24.1883 71.4536 24.3887C72.0013 24.5757 72.6625 24.6692 73.4373 24.6692C74.0919 24.6692 74.7197 24.569 75.3208 24.3686C75.9353 24.1549 76.4563 23.8276 76.8837 23.3868C77.3112 22.946 77.5851 22.3783 77.7053 21.6836Z" fill="white"/>
<path d="M102.652 6.87593L91.9118 29.5784H84.3176L99.7866 0.403832H104.636L102.652 6.87593ZM104.495 29.5784L101.53 6.17462L101.69 0.403832H106.259L111.649 29.5784H104.495ZM106.058 18.698L105.096 24.1282H90.5293L91.4911 18.698H106.058Z" fill="white"/>
<path d="M124.272 22.425L133.53 0.403832H141.404L127.278 29.5784H122.168L124.272 22.425ZM122.329 0.403832L124.773 23.0462L124.693 29.5784H119.804L114.875 0.403832H122.329Z" fill="white"/>
<path d="M150.602 22.425L159.859 0.403832H167.734L153.607 29.5784H148.498L150.602 22.425ZM148.658 0.403832L151.103 23.0462L151.022 29.5784H146.133L141.204 0.403832H148.658Z" fill="white"/>
<path d="M174.987 0.403832L177.993 13.0274L185.387 0.403832H193.081L180.518 19.4194L178.774 29.5784H171.781L173.665 18.7581L167.814 0.423869L174.987 0.403832Z" fill="white"/>
</svg>
